<svg width="237" height="270" viewBox="0 0 237 270" fill="none" xmlns="http://www.w3.org/2000/svg">
<path opacity="0.2" d="M181.55 191.188C212.506 211.176 265.644 228.969 217.625 258.219C172.775 285.519 122.075 257.244 96.9688 232.382C46.5125 182.169 -39.775 182.901 21.1625 174.369C25.7938 173.638 59.675 174.369 93.3125 179.244C128.169 184.119 172.288 185.094 181.55 191.188Z" fill="#578FCA"/>
<path d="M164.244 175.099C164.244 175.099 169.119 186.555 168.875 190.212C168.631 193.868 166.925 198.743 169.119 200.693C171.312 202.399 188.131 213.368 191.3 217.999C194.469 222.63 196.175 230.674 207.387 225.312C218.6 219.949 214.944 211.905 209.581 209.712C204.462 207.518 193.737 205.568 188.131 200.205C182.525 194.843 180.331 193.137 185.206 184.849C190.081 176.562 192.275 169.98 192.275 169.98L164.244 175.099Z" fill="#D8A353"/>
<path d="M164.244 175.099C164.244 175.099 169.119 186.555 168.875 190.212C168.631 193.868 166.925 198.743 169.119 200.693C171.312 202.399 188.131 213.368 191.3 217.999C194.469 222.63 196.175 230.674 207.387 225.312C218.6 219.949 214.944 211.905 209.581 209.712C204.462 207.518 193.737 205.568 188.131 200.205C182.525 194.843 180.331 193.137 185.206 184.849C190.081 176.562 192.275 169.98 192.275 169.98L164.244 175.099Z" fill="#4F4D47"/>
<path d="M141.575 22.5118C143.525 18.8556 147.913 13.7368 154.981 10.3243C162.05 6.91182 167.169 5.69308 167.169 5.69308C167.169 5.69308 171.313 -1.86318 180.575 1.30557C189.838 4.47432 198.856 22.0243 201.05 29.5806C203.244 37.1368 206.413 50.7868 203.488 52.4931C200.563 54.1993 196.175 47.3743 196.175 47.3743C196.175 47.3743 198.613 58.3431 200.563 65.1681C202.269 71.9931 200.319 83.9368 202.269 87.8368C203.975 91.7368 212.506 106.118 211.531 121.231C210.556 136.343 204.706 150.968 204.463 157.306C204.219 163.643 212.75 198.256 214.213 200.937C215.675 203.618 214.7 211.662 217.138 216.537C219.575 221.412 238.344 226.043 232.25 235.549C226.4 245.056 209.581 240.424 207.144 235.062C204.706 229.699 207.388 223.849 204.463 213.612C201.538 203.374 188.131 175.099 188.131 175.099C188.131 175.099 183.256 176.562 176.431 177.293C169.363 178.268 162.05 186.799 164.488 200.937C166.925 215.074 169.363 220.437 170.825 223.849C172.288 227.262 171.313 235.062 173.506 239.449C175.7 244.081 191.056 249.687 185.206 257.243C179.356 264.799 166.925 265.043 160.344 258.706C153.763 252.368 159.369 249.443 154.981 233.843C150.35 218.243 145.231 200.206 145.231 200.206L129.875 203.862L119.15 226.531C119.15 226.531 128.413 233.356 133.044 236.037C137.675 238.718 146.938 236.524 150.106 240.668C153.275 244.812 154.494 254.074 144.744 257.731C134.994 261.387 129.388 249.443 125.975 246.762C122.563 244.324 108.913 238.718 105.256 234.574C101.6 230.431 104.769 220.437 104.769 220.437C104.769 220.437 90.3876 218.974 83.3188 209.712C76.2501 200.449 77.225 198.499 74.3 196.306C71.375 194.112 66.7438 192.162 52.85 193.624C38.9563 195.087 21.8938 189.237 14.5813 180.949C7.02504 172.662 5.56254 153.406 7.51254 151.699C9.46254 149.993 12.875 162.668 16.775 165.593C20.675 168.518 29.6938 175.831 40.4188 174.856C51.1438 173.881 70.8876 166.081 70.8876 166.081C70.8876 166.081 82.1 134.881 97.2125 118.062C112.325 100.999 132.8 89.5431 135.969 77.1118C138.65 64.6806 138.406 28.6056 141.575 22.5118Z" fill="#585652"/>
<path opacity="0.2" d="M136.212 169.494C136.212 169.494 133.287 173.394 126.462 173.394C122.806 173.394 117.444 172.907 113.544 172.419C115.006 172.663 116.956 173.15 118.906 173.882C125.731 176.075 128.412 179 131.337 185.094C134.019 191.188 129.387 203.863 129.387 203.863L144.744 200.207C144.744 200.207 143.037 195.088 142.306 192.407C141.575 189.969 135.969 176.319 136.212 169.494ZM161.319 65.4129C160.344 61.7566 156.931 52.9816 151.569 47.1316C147.669 42.7441 144.256 32.9941 142.794 26.9004L140.112 27.6316C138.65 36.6504 138.162 53.7129 136.944 66.1441C139.137 67.8504 147.181 70.7754 149.862 72.2379C161.319 78.5754 163.269 73.4566 161.319 65.4129Z" fill="#2F1B0B"/>
<path d="M158.394 34.701C158.394 34.701 158.15 29.3385 160.344 27.1447C162.294 24.951 166.438 25.6822 164.488 30.3135C162.538 35.1885 158.394 34.701 158.394 34.701ZM180.819 17.3947C180.819 17.3947 180.331 14.7135 182.525 13.7385C184.719 13.0072 186.913 17.3947 186.913 17.3947H180.819ZM200.806 36.1635C200.806 36.1635 200.075 34.701 198.369 34.2135C196.906 33.726 195.2 33.9697 193.25 34.701L191.056 30.3135L190.325 30.801L192.519 35.1885C189.35 36.8947 187.888 38.8447 186.181 41.2822C185.206 42.7447 183.988 44.451 182.281 45.9135C177.894 50.301 175.456 51.0322 175.456 51.0322C175.213 51.0322 175.213 51.276 175.213 51.5197C175.213 51.7635 175.456 51.7635 175.7 51.7635H175.944C175.944 51.7635 178.625 50.7885 183.256 46.401C184.963 44.6947 186.181 42.9885 187.156 41.526C188.863 39.0885 190.325 37.1385 193.494 35.4322C195.444 34.4572 196.906 34.2135 198.125 34.701C199.588 35.1885 200.075 36.1635 200.075 36.1635C200.075 36.4072 200.563 36.4072 200.563 36.4072C200.806 36.651 200.806 36.4072 200.806 36.1635Z" fill="#578FCA"/>
<path d="M143.038 20.8056C141.088 19.5868 136.456 22.5118 133.044 29.0931C129.631 35.6743 124.756 47.3743 128.656 53.2243C132.556 59.0743 139.138 64.1931 144.988 66.3868C150.594 68.5806 157.175 72.7243 158.881 71.5056C160.588 70.2868 156.2 57.6118 151.569 51.0306C146.938 44.4493 141.819 36.8931 141.819 36.8931C141.819 36.8931 147.913 23.9743 143.038 20.8056Z" fill="#585652"/>
<path opacity="0.2" d="M200.806 29.3367C202.512 33.4805 202.025 37.868 200.562 42.0117C199.1 45.9117 196.419 47.618 196.419 47.618V47.8617C197.15 49.0805 200.806 54.443 203.487 52.7367C206.412 51.0305 203.244 37.3805 201.05 29.8242C198.856 22.268 189.837 4.96172 180.575 1.54922C172.044 -1.37579 167.9 4.71797 167.169 5.69297C171.069 5.69297 177.894 6.66796 181.55 10.3242C185.45 13.9805 187.887 16.1742 190.325 19.5867C192.762 22.9992 198.856 24.9492 200.806 29.3367Z" fill="#2F1B0B"/>
<path d="M180.087 24.2184C178.381 28.1184 184.475 33.9684 190.569 31.2872C196.662 28.3622 194.225 21.5372 192.275 20.0747C190.325 18.3684 182.037 19.5872 180.087 24.2184ZM203.487 76.1372C193.25 77.8434 180.819 78.8184 168.144 78.0872C149.375 77.3559 138.894 74.1872 134.75 71.7497C134.506 73.4559 134.262 75.1622 133.775 76.6247C133.287 78.0872 132.8 79.7934 131.825 81.2559C141.575 86.1309 157.419 87.5934 167.656 87.8372C170.337 87.8372 173.019 88.0809 175.7 88.0809C184.719 88.0809 194.469 87.5934 203.731 85.8872C203.244 83.4497 203.487 79.7934 203.487 76.1372Z" fill="#578FCA"/>
</svg>
