<svg width="237" height="270" viewBox="0 0 237 270" fill="none" xmlns="http://www.w3.org/2000/svg">
<g clip-path="url(#clip0_1045_366)">
<path opacity="0.2" d="M181.55 191.187C212.506 211.175 265.644 228.968 217.625 258.218C172.775 285.518 122.075 257.243 96.9688 232.381C46.5125 182.168 -39.775 182.9 21.1625 174.368C25.7938 173.637 59.675 174.368 93.3125 179.243C128.169 184.118 172.288 185.093 181.55 191.187Z" fill="#798645"/>
<path d="M164.244 175.1C164.244 175.1 169.119 186.556 168.875 190.213C168.631 193.869 166.925 198.744 169.119 200.694C171.313 202.4 188.131 213.369 191.3 218C194.469 222.631 196.175 230.675 207.388 225.313C218.6 219.95 214.944 211.906 209.581 209.713C204.463 207.519 193.738 205.569 188.131 200.206C182.525 194.844 180.331 193.138 185.206 184.85C190.081 176.563 192.275 169.981 192.275 169.981L164.244 175.1Z" fill="#D8A353"/>
<path opacity="0.2" d="M164.244 175.1C164.244 175.1 169.119 186.556 168.875 190.213C168.631 193.869 166.925 198.744 169.119 200.694C171.313 202.4 188.131 213.369 191.3 218C194.469 222.631 196.175 230.675 207.388 225.313C218.6 219.95 214.944 211.906 209.581 209.713C204.463 207.519 193.738 205.569 188.131 200.206C182.525 194.844 180.331 193.138 185.206 184.85C190.081 176.563 192.275 169.981 192.275 169.981L164.244 175.1Z" fill="#2F1B0B"/>
<path d="M141.575 22.5128C143.525 18.8565 147.913 13.7378 154.981 10.3253C162.05 6.9128 167.169 5.69405 167.169 5.69405C167.169 5.69405 171.313 -1.8622 180.575 1.30655C189.838 4.4753 198.856 22.0253 201.05 29.5816C203.244 37.1378 206.413 50.7878 203.488 52.494C200.563 54.2003 196.175 47.3753 196.175 47.3753C196.175 47.3753 198.613 58.3441 200.563 65.1691C202.269 71.9941 200.319 83.9378 202.269 87.8378C203.975 91.7378 212.506 106.119 211.531 121.232C210.556 136.344 204.706 150.969 204.463 157.307C204.219 163.644 212.75 198.257 214.213 200.938C215.675 203.619 214.7 211.663 217.138 216.538C219.575 221.413 238.344 226.044 232.25 235.55C226.4 245.057 209.581 240.425 207.144 235.063C204.706 229.7 207.388 223.85 204.463 213.613C201.538 203.375 188.131 175.1 188.131 175.1C188.131 175.1 183.256 176.563 176.431 177.294C169.363 178.269 162.05 186.8 164.488 200.938C166.925 215.075 169.363 220.438 170.825 223.85C172.288 227.263 171.313 235.063 173.506 239.45C175.7 244.082 191.056 249.688 185.206 257.244C179.356 264.8 166.925 265.044 160.344 258.707C153.763 252.369 159.369 249.444 154.981 233.844C150.35 218.244 145.231 200.207 145.231 200.207L129.875 203.863L119.15 226.532C119.15 226.532 128.413 233.357 133.044 236.038C137.675 238.719 146.938 236.525 150.106 240.669C153.275 244.813 154.494 254.075 144.744 257.732C134.994 261.388 129.388 249.444 125.975 246.763C122.563 244.325 108.913 238.719 105.256 234.575C101.6 230.432 104.769 220.438 104.769 220.438C104.769 220.438 90.3875 218.975 83.3188 209.713C76.25 200.45 77.225 198.5 74.3 196.307C71.375 194.113 66.7438 192.163 52.85 193.625C38.9563 195.088 21.8938 189.238 14.5813 180.95C7.02504 172.663 5.56254 153.407 7.51254 151.7C9.46254 149.994 12.875 162.669 16.775 165.594C20.675 168.519 29.6938 175.832 40.4188 174.857C51.1438 173.882 70.8875 166.082 70.8875 166.082C70.8875 166.082 82.1 134.882 97.2125 118.063C112.325 101 132.8 89.544 135.969 77.1128C138.65 64.6815 138.406 28.6065 141.575 22.5128Z" fill="#D8A353"/>
<path opacity="0.2" d="M136.212 169.494C136.212 169.494 133.287 173.394 126.462 173.394C122.806 173.394 117.444 172.907 113.544 172.419C115.006 172.663 116.956 173.15 118.906 173.882C125.731 176.075 128.412 179 131.337 185.094C134.019 191.188 129.387 203.863 129.387 203.863L144.744 200.207C144.744 200.207 143.037 195.088 142.306 192.407C141.575 189.969 135.969 176.319 136.212 169.494ZM161.319 65.4129C160.344 61.7566 156.931 52.9816 151.569 47.1316C147.669 42.7441 144.256 32.9941 142.794 26.9004L140.112 27.6316C138.65 36.6504 138.162 53.7129 136.944 66.1441C139.137 67.8504 147.181 70.7754 149.862 72.2379C161.319 78.5754 163.269 73.4566 161.319 65.4129Z" fill="#2F1B0B"/>
<path d="M158.394 34.7C158.394 34.7 158.15 29.3375 160.344 27.1437C162.294 24.95 166.438 25.6812 164.488 30.3125C162.538 35.1875 158.394 34.7 158.394 34.7ZM180.819 17.3937C180.819 17.3937 180.331 14.7125 182.525 13.7375C184.719 13.0062 186.913 17.3937 186.913 17.3937H180.819ZM200.806 36.1625C200.806 36.1625 200.075 34.7 198.369 34.2125C196.906 33.725 195.2 33.9687 193.25 34.7L191.056 30.3125L190.325 30.8L192.519 35.1875C189.35 36.8937 187.888 38.8437 186.181 41.2812C185.206 42.7437 183.988 44.45 182.281 45.9125C177.894 50.3 175.456 51.0312 175.456 51.0312C175.213 51.0312 175.213 51.275 175.213 51.5187C175.213 51.7625 175.456 51.7625 175.7 51.7625H175.944C175.944 51.7625 178.625 50.7875 183.256 46.4C184.963 44.6937 186.181 42.9875 187.156 41.525C188.863 39.0875 190.325 37.1375 193.494 35.4312C195.444 34.4562 196.906 34.2125 198.125 34.7C199.588 35.1875 200.075 36.1625 200.075 36.1625C200.075 36.4062 200.563 36.4062 200.563 36.4062C200.806 36.65 200.806 36.4062 200.806 36.1625Z" fill="#235328"/>
<path d="M143.037 20.8065C141.087 19.5878 136.456 22.5128 133.044 29.094C129.631 35.6753 124.756 47.3753 128.656 53.2253C132.556 59.0753 139.137 64.1941 144.987 66.3878C150.594 68.5816 157.175 72.7253 158.881 71.5066C160.587 70.2878 156.2 57.6128 151.569 51.0315C146.937 44.4503 141.819 36.8941 141.819 36.8941C141.819 36.8941 147.912 23.9753 143.037 20.8065Z" fill="#D8A353"/>
<path opacity="0.2" d="M200.806 29.3377C202.512 33.4814 202.025 37.8689 200.562 42.0127C199.1 45.9127 196.419 47.6189 196.419 47.6189V47.8627C197.15 49.0814 200.806 54.4439 203.487 52.7377C206.412 51.0314 203.244 37.3814 201.05 29.8252C198.856 22.2689 189.837 4.96269 180.575 1.55019C172.044 -1.37481 167.9 4.71894 167.169 5.69394C171.069 5.69394 177.894 6.66894 181.55 10.3252C185.45 13.9814 187.887 16.1752 190.325 19.5877C192.762 23.0002 198.856 24.9502 200.806 29.3377Z" fill="#2F1B0B"/>
<path d="M180.087 24.2184C178.381 28.1184 184.475 33.9684 190.569 31.2872C196.662 28.3622 194.225 21.5372 192.275 20.0747C190.325 18.3684 182.037 19.5872 180.087 24.2184ZM203.487 76.1372C193.25 77.8434 180.819 78.8184 168.144 78.0872C149.375 77.3559 138.894 74.1872 134.75 71.7497C134.506 73.4559 134.262 75.1622 133.775 76.6247C133.287 78.0872 132.8 79.7934 131.825 81.2559C141.575 86.1309 157.419 87.5934 167.656 87.8372C170.337 87.8372 173.019 88.0809 175.7 88.0809C184.719 88.0809 194.469 87.5934 203.731 85.8872C203.244 83.4497 203.487 79.7934 203.487 76.1372Z" fill="#235328"/>
</g>
<defs>
<clipPath id="clip0_1045_366">
<rect width="237" height="270" fill="white"/>
</clipPath>
</defs>
</svg>
