<svg width="390" height="390" viewBox="0 0 390 390" fill="none" xmlns="http://www.w3.org/2000/svg">
<path opacity="0.2" d="M251.55 285.187C282.506 305.175 335.644 322.968 287.625 352.218C242.775 379.518 192.075 351.243 166.969 326.381C116.513 276.168 30.225 276.9 91.1625 268.368C95.7938 267.637 129.675 268.368 163.313 273.243C198.169 278.118 242.288 279.093 251.55 285.187Z" fill="#798645"/>
<path d="M234.244 269.1C234.244 269.1 239.119 280.556 238.875 284.213C238.631 287.869 236.925 292.744 239.119 294.694C241.313 296.4 258.131 307.369 261.3 312C264.469 316.631 266.175 324.675 277.388 319.313C288.6 313.95 284.944 305.906 279.581 303.713C274.463 301.519 263.738 299.569 258.131 294.206C252.525 288.844 250.331 287.138 255.206 278.85C260.081 270.563 262.275 263.981 262.275 263.981L234.244 269.1Z" fill="#D8A353"/>
<path opacity="0.2" d="M234.244 269.1C234.244 269.1 239.119 280.556 238.875 284.213C238.631 287.869 236.925 292.744 239.119 294.694C241.313 296.4 258.131 307.369 261.3 312C264.469 316.631 266.175 324.675 277.388 319.313C288.6 313.95 284.944 305.906 279.581 303.713C274.463 301.519 263.738 299.569 258.131 294.206C252.525 288.844 250.331 287.138 255.206 278.85C260.081 270.563 262.275 263.981 262.275 263.981L234.244 269.1Z" fill="#2F1B0B"/>
<path d="M211.575 116.513C213.525 112.857 217.913 107.738 224.981 104.325C232.05 100.913 237.169 99.6941 237.169 99.6941C237.169 99.6941 241.313 92.1378 250.575 95.3065C259.838 98.4753 268.856 116.025 271.05 123.582C273.244 131.138 276.413 144.788 273.488 146.494C270.563 148.2 266.175 141.375 266.175 141.375C266.175 141.375 268.613 152.344 270.563 159.169C272.269 165.994 270.319 177.938 272.269 181.838C273.975 185.738 282.506 200.119 281.531 215.232C280.556 230.344 274.706 244.969 274.463 251.307C274.219 257.644 282.75 292.257 284.213 294.938C285.675 297.619 284.7 305.663 287.138 310.538C289.575 315.413 308.344 320.044 302.25 329.55C296.4 339.057 279.581 334.425 277.144 329.063C274.706 323.7 277.388 317.85 274.463 307.613C271.538 297.375 258.131 269.1 258.131 269.1C258.131 269.1 253.256 270.563 246.431 271.294C239.363 272.269 232.05 280.8 234.488 294.938C236.925 309.075 239.363 314.438 240.825 317.85C242.288 321.263 241.313 329.063 243.506 333.45C245.7 338.082 261.056 343.688 255.206 351.244C249.356 358.8 236.925 359.044 230.344 352.707C223.763 346.369 229.369 343.444 224.981 327.844C220.35 312.244 215.231 294.207 215.231 294.207L199.875 297.863L189.15 320.532C189.15 320.532 198.413 327.357 203.044 330.038C207.675 332.719 216.938 330.525 220.106 334.669C223.275 338.813 224.494 348.075 214.744 351.732C204.994 355.388 199.388 343.444 195.975 340.763C192.563 338.325 178.913 332.719 175.256 328.575C171.6 324.432 174.769 314.438 174.769 314.438C174.769 314.438 160.388 312.975 153.319 303.713C146.25 294.45 147.225 292.5 144.3 290.307C141.375 288.113 136.744 286.163 122.85 287.625C108.956 289.088 91.8938 283.238 84.5813 274.95C77.025 266.663 75.5625 247.407 77.5125 245.7C79.4625 243.994 82.875 256.669 86.775 259.594C90.675 262.519 99.6938 269.832 110.419 268.857C121.144 267.882 140.888 260.082 140.888 260.082C140.888 260.082 152.1 228.882 167.213 212.063C182.325 195 202.8 183.544 205.969 171.113C208.65 158.682 208.406 122.607 211.575 116.513Z" fill="#D8A353"/>
<path opacity="0.2" d="M206.212 263.494C206.212 263.494 203.287 267.394 196.462 267.394C192.806 267.394 187.444 266.907 183.544 266.419C185.006 266.663 186.956 267.15 188.906 267.882C195.731 270.075 198.412 273 201.337 279.094C204.019 285.188 199.387 297.863 199.387 297.863L214.744 294.207C214.744 294.207 213.037 289.088 212.306 286.407C211.575 283.969 205.969 270.319 206.212 263.494ZM231.319 159.413C230.344 155.757 226.931 146.982 221.569 141.132C217.669 136.744 214.256 126.994 212.794 120.9L210.112 121.632C208.65 130.65 208.162 147.713 206.944 160.144C209.137 161.85 217.181 164.775 219.862 166.238C231.319 172.575 233.269 167.457 231.319 159.413Z" fill="#2F1B0B"/>
<path d="M228.394 128.7C228.394 128.7 228.15 123.337 230.344 121.144C232.294 118.95 236.438 119.681 234.488 124.312C232.538 129.187 228.394 128.7 228.394 128.7ZM250.819 111.394C250.819 111.394 250.331 108.712 252.525 107.737C254.719 107.006 256.913 111.394 256.913 111.394H250.819ZM270.806 130.162C270.806 130.162 270.075 128.7 268.369 128.212C266.906 127.725 265.2 127.969 263.25 128.7L261.056 124.312L260.325 124.8L262.519 129.187C259.35 130.894 257.888 132.844 256.181 135.281C255.206 136.744 253.988 138.45 252.281 139.912C247.894 144.3 245.456 145.031 245.456 145.031C245.213 145.031 245.213 145.275 245.213 145.519C245.213 145.762 245.456 145.762 245.7 145.762H245.944C245.944 145.762 248.625 144.787 253.256 140.4C254.963 138.694 256.181 136.987 257.156 135.525C258.863 133.087 260.325 131.137 263.494 129.431C265.444 128.456 266.906 128.212 268.125 128.7C269.588 129.187 270.075 130.162 270.075 130.162C270.075 130.406 270.563 130.406 270.563 130.406C270.806 130.65 270.806 130.406 270.806 130.162Z" fill="#235328"/>
<path d="M213.037 114.807C211.087 113.588 206.456 116.513 203.044 123.094C199.631 129.675 194.756 141.375 198.656 147.225C202.556 153.075 209.137 158.194 214.987 160.388C220.594 162.582 227.175 166.725 228.881 165.507C230.587 164.288 226.2 151.613 221.569 145.032C216.937 138.45 211.819 130.894 211.819 130.894C211.819 130.894 217.912 117.975 213.037 114.807Z" fill="#D8A353"/>
<path opacity="0.2" d="M270.806 123.338C272.512 127.481 272.025 131.869 270.562 136.013C269.1 139.913 266.419 141.619 266.419 141.619V141.863C267.15 143.081 270.806 148.444 273.487 146.738C276.412 145.031 273.244 131.381 271.05 123.825C268.856 116.269 259.837 98.9627 250.575 95.5502C242.044 92.6252 237.9 98.7189 237.169 99.6939C241.069 99.6939 247.894 100.669 251.55 104.325C255.45 107.981 257.887 110.175 260.325 113.588C262.762 117 268.856 118.95 270.806 123.338Z" fill="#2F1B0B"/>
<path d="M250.087 118.218C248.381 122.118 254.475 127.968 260.569 125.287C266.662 122.362 264.225 115.537 262.275 114.075C260.325 112.368 252.037 113.587 250.087 118.218ZM273.487 170.137C263.25 171.843 250.819 172.818 238.144 172.087C219.375 171.356 208.894 168.187 204.75 165.75C204.506 167.456 204.262 169.162 203.775 170.625C203.287 172.087 202.8 173.793 201.825 175.256C211.575 180.131 227.419 181.593 237.656 181.837C240.337 181.837 243.019 182.081 245.7 182.081C254.719 182.081 264.469 181.593 273.731 179.887C273.244 177.45 273.487 173.793 273.487 170.137Z" fill="#235328"/>
</svg>
