<svg width="29" height="29" viewBox="0 0 29 29" fill="none" xmlns="http://www.w3.org/2000/svg">
<path d="M21.7499 4.83301C19.6837 4.83301 18.427 5.23176 17.702 5.57009C16.7716 5.11092 15.7083 4.83301 14.4999 4.83301C13.2916 4.83301 12.2283 5.11092 11.2978 5.57009C10.5728 5.23176 9.31617 4.83301 7.24992 4.83301C3.62492 4.83301 1.20825 14.4997 1.20825 16.9163C1.20825 17.9193 2.80325 18.8376 5.00242 19.2122C5.77575 21.9188 9.42492 23.9851 13.8958 24.1663V18.9947C13.1828 18.5476 12.0833 17.738 12.0833 16.9163C12.0833 15.708 14.4999 15.708 14.4999 15.708C14.4999 15.708 16.9166 15.708 16.9166 16.9163C16.9166 17.738 15.817 18.5476 15.1041 18.9947V24.1663C19.5749 23.9851 23.2241 21.9188 23.9974 19.2122C26.1966 18.8376 27.7916 17.9193 27.7916 16.9163C27.7916 14.4997 25.3749 4.83301 21.7499 4.83301ZM5.0145 16.7593C4.41034 16.6143 3.93909 16.4451 3.62492 16.3122C3.927 12.9651 6.28325 7.73301 7.31034 7.24967C7.96284 7.24967 8.45825 7.32217 8.90534 7.38259C6.36784 10.1738 5.36492 14.548 5.0145 16.7593ZM10.8749 14.4997C10.5544 14.4997 10.2471 14.3724 10.0205 14.1458C9.79389 13.9192 9.66659 13.6118 9.66659 13.2913C9.66659 12.6388 10.2103 12.083 10.8749 12.083C11.1954 12.083 11.5027 12.2103 11.7293 12.4369C11.9559 12.6635 12.0833 12.9709 12.0833 13.2913C12.0833 13.968 11.5395 14.4997 10.8749 14.4997ZM18.1249 14.4997C17.8044 14.4997 17.4971 14.3724 17.2705 14.1458C17.0439 13.9192 16.9166 13.6118 16.9166 13.2913C16.9166 12.6388 17.4603 12.083 18.1249 12.083C18.4454 12.083 18.7527 12.2103 18.9793 12.4369C19.2059 12.6635 19.3333 12.9709 19.3333 13.2913C19.3333 13.968 18.7895 14.4997 18.1249 14.4997ZM23.9853 16.7593C23.6349 14.548 22.632 10.1738 20.0945 7.38259C20.5416 7.32217 21.037 7.24967 21.6895 7.24967C22.7166 7.73301 25.0728 12.9651 25.3749 16.3122C25.0728 16.4451 24.6016 16.6143 23.9853 16.7593Z" fill="black"/>
</svg>
