<svg width="29" height="29" viewBox="0 0 29 29" fill="none" xmlns="http://www.w3.org/2000/svg">
<g clip-path="url(#clip0_1322_378)">
<path d="M26.0436 4.8327C25.9338 4.82139 25.8231 4.82139 25.7133 4.8327H3.15778C3.01322 4.83493 2.86961 4.85661 2.73083 4.89715L14.3711 16.4891L26.0436 4.8327Z" fill="black"/>
<path d="M27.2358 5.95312L15.5069 17.6337C15.205 17.9338 14.7967 18.1022 14.3711 18.1022C13.9454 18.1022 13.5371 17.9338 13.2352 17.6337L1.61108 6.04174C1.57534 6.17307 1.55639 6.30841 1.55469 6.44451V22.5556C1.55469 22.9829 1.72443 23.3927 2.02657 23.6949C2.32871 23.997 2.73851 24.1667 3.1658 24.1667H25.7214C26.1486 24.1667 26.5584 23.997 26.8606 23.6949C27.1627 23.3927 27.3325 22.9829 27.3325 22.5556V6.44451C27.3261 6.27668 27.2934 6.11088 27.2358 5.95312ZM4.26941 22.5556H3.14969V21.4037L9.00608 15.5956L10.1419 16.7315L4.26941 22.5556ZM25.7052 22.5556H24.5775L18.705 16.7315L19.8408 15.5956L25.6972 21.4037L25.7052 22.5556Z" fill="black"/>
</g>
<defs>
<clipPath id="clip0_1322_378">
<rect width="29" height="29" fill="white"/>
</clipPath>
</defs>
</svg>
