<svg width="28" height="28" viewBox="0 0 28 28" fill="none" xmlns="http://www.w3.org/2000/svg">
<path d="M15.1666 7.00065C15.1666 6.69123 15.0437 6.39449 14.8249 6.17569C14.6061 5.9569 14.3093 5.83398 13.9999 5.83398C13.6905 5.83398 13.3938 5.9569 13.175 6.17569C12.9562 6.39449 12.8333 6.69123 12.8333 7.00065V12.834H6.99992C6.6905 12.834 6.39375 12.9569 6.17496 13.1757C5.95617 13.3945 5.83325 13.6912 5.83325 14.0007C5.83325 14.3101 5.95617 14.6068 6.17496 14.8256C6.39375 15.0444 6.6905 15.1673 6.99992 15.1673H12.8333V21.0007C12.8333 21.3101 12.9562 21.6068 13.175 21.8256C13.3938 22.0444 13.6905 22.1673 13.9999 22.1673C14.3093 22.1673 14.6061 22.0444 14.8249 21.8256C15.0437 21.6068 15.1666 21.3101 15.1666 21.0007V15.1673H20.9999C21.3093 15.1673 21.6061 15.0444 21.8249 14.8256C22.0437 14.6068 22.1666 14.3101 22.1666 14.0007C22.1666 13.6912 22.0437 13.3945 21.8249 13.1757C21.6061 12.9569 21.3093 12.834 20.9999 12.834H15.1666V7.00065Z" fill="white"/>
</svg>
