<svg width="180" height="385" viewBox="0 0 180 385" fill="none" xmlns="http://www.w3.org/2000/svg">
<g clip-path="url(#clip0_1354_396)">
<path d="M58.8759 171.728C64.1737 168.55 71.0668 170.241 74.2577 175.537C77.4487 180.813 75.7509 187.678 70.4327 190.855C65.135 194.033 58.2418 192.342 55.0509 187.046C51.86 181.791 53.5782 174.926 58.8759 171.728Z" fill="#FFE1BF"/>
<path d="M71.578 172.517C71.2098 172.231 51.5325 149.213 51.5325 149.213L43.4939 158.909L61.2484 181.296L71.578 172.517Z" fill="#FFE1BF"/>
<path d="M54.9897 351.981L49.9782 374.776L34.1464 372.413L39.26 349.924L54.9897 351.981Z" fill="#FFE1BF"/>
<path d="M125.967 349.957L126.151 373.301L110.217 374.483L110.176 351.424L125.967 349.957Z" fill="#FFE1BF"/>
<path d="M51.9823 371.071C51.655 370.114 50.4891 369.707 49.6505 370.318C48.0141 371.499 45.13 372.884 40.9573 372.395C36.6209 371.886 35.0666 369.605 34.5348 367.975C34.2484 367.119 33.328 366.671 32.4893 366.997L5.63245 377.712C3.99609 378.364 2.68696 379.627 2.01196 381.236C1.35742 382.744 2.46202 384.434 4.11884 384.434L49.753 384.76C51.553 384.781 52.9848 383.294 52.903 381.501L52.5143 372.721C52.5143 372.579 52.4734 372.436 52.4325 372.294L51.9823 371.071Z" fill="#0C0C0C"/>
<path d="M108.601 371.071C108.928 370.114 110.114 369.707 110.932 370.318C112.569 371.499 115.453 372.884 119.626 372.395C123.962 371.886 125.496 369.605 126.048 367.975C126.335 367.119 127.255 366.671 128.094 366.997L154.951 377.712C156.587 378.364 157.896 379.627 158.571 381.236C159.226 382.744 158.121 384.434 156.464 384.434L110.83 384.76C109.03 384.781 107.598 383.294 107.68 381.501L108.069 372.721C108.069 372.579 108.11 372.436 108.151 372.294L108.601 371.071Z" fill="#0C0C0C"/>
<path d="M108.396 57.291L94.2207 58.5132L71.6798 71.1632V161.119H131.837V71.1632L108.396 57.291Z" fill="#578FCA"/>
<path d="M104.509 66.345H100.439C96.2252 66.345 92.8093 62.9431 92.8093 58.7468V43.5098H112.118V58.7468C112.139 62.9431 108.723 66.345 104.509 66.345Z" fill="#FFE1BF"/>
<path d="M92.8093 51.2707C92.8093 51.2707 95.8161 57.2799 102.648 57.2799C109.48 57.2799 112.118 51.1484 112.118 51.1484L92.8093 51.2707Z" fill="#F2C796"/>
<path d="M102.689 53.762H102.055C92.216 53.762 84.1161 46.0212 83.7274 36.2231L83.3797 26.4657C82.9706 16.0971 91.2956 7.48047 101.707 7.48047H103.037C110.912 7.48047 121.773 16.0971 121.364 26.4657L121.016 36.2231C120.627 46.0212 112.527 53.762 102.689 53.762Z" fill="#FFE1BF"/>
<path d="M89.3531 33.8677C89.5781 37.1677 87.0827 40.0196 83.769 40.2436C80.4554 40.4677 77.5918 37.9825 77.3668 34.6825C77.1418 31.3825 79.6372 28.5307 82.9508 28.3066C86.2645 28.1029 89.1281 30.5881 89.3531 33.8677Z" fill="#FFE1BF"/>
<path d="M127.358 33.8677C127.583 37.1677 125.087 40.0196 121.774 40.2436C118.46 40.4677 115.597 37.9825 115.372 34.6825C115.147 31.3825 117.642 28.5307 120.956 28.3066C124.269 28.1029 127.133 30.5881 127.358 33.8677Z" fill="#FFE1BF"/>
<path d="M71.6797 160.688L34.2683 358.749L55.766 358.545L110.461 161.075L71.6797 160.688Z" fill="#202020"/>
<path d="M131.837 161.117L129.485 358.955H106.76L97.6984 162.36L131.837 161.117Z" fill="#202020"/>
<path d="M71.6803 71.1523C71.6803 71.1523 21.4439 101.341 9.23264 122.282C6.83946 126.376 9.94849 131.673 14.1621 133.852C18.8258 136.276 24.5735 134.626 27.253 130.125L73.7257 103.276C73.7462 103.276 71.6803 80.2172 71.6803 71.1523Z" fill="#578FCA"/>
<path d="M82.3371 15.3862L83.7485 30.3787H86.0189L86.3053 22.5158C86.3053 22.5158 87.4917 19.501 92.7894 13.0232C92.7894 13.0232 96.2462 21.8232 117.662 20.1121L118.91 30.0528L121.119 29.8084L122.285 19.1343C123.062 15.5288 123.328 12.1677 122.673 8.54175C121.344 1.20841 115.351 -2.84529 98.0462 2.32878C99.5394 2.47138 96.6144 2.75656 98.0462 2.32878C93.0962 1.77878 80.0462 1.71767 82.3371 15.3862Z" fill="#2E2A33"/>
<path d="M107.823 159.694L102.955 211.558C102.771 213.513 104.1 215.284 106.043 215.65L165.771 227.017C167.959 227.445 170.046 225.899 170.291 223.699L175.753 174.401C175.957 172.486 174.709 170.714 172.807 170.266L112.487 156.333C110.237 155.803 108.048 157.392 107.823 159.694Z" fill="#AFAFAF"/>
<path d="M111.137 160.618L106.269 212.481C106.085 214.437 107.414 216.209 109.357 216.576L169.085 227.943C171.273 228.35 173.36 226.822 173.605 224.622L179.066 175.325C179.271 173.41 178.023 171.638 176.121 171.19L115.801 157.257C113.571 156.727 111.362 158.316 111.137 160.618Z" fill="#D1D1D1"/>
<path d="M142.228 213.538C148.16 215.29 151.555 221.503 149.796 227.411C148.037 233.318 141.798 236.699 135.867 234.968C129.935 233.216 126.539 227.003 128.278 221.096C130.058 215.168 136.276 211.786 142.228 213.538Z" fill="#FFE1BF"/>
<path d="M150.225 223.402C150.184 222.933 148.262 191.848 148.262 191.848L137.646 193.762L139.057 220.265L150.225 223.402Z" fill="#FFE1BF"/>
<path d="M131.837 71.1523C131.837 71.1523 147.914 82.6209 148.937 98.9579L153.969 137.152C154.255 139.393 154.378 141.634 154.296 143.895L152.353 201.991H130.283L129.873 139.108L131.837 71.1523Z" fill="#578FCA"/>
<path d="M95.9183 57.291C94.2001 58.5336 85.916 63.1781 85.916 63.1781C85.916 63.1781 86.141 74.7892 103.691 73.8521C119.134 73.0373 119.032 63.6058 119.032 63.6058L108.375 57.291H95.9183Z" fill="#FFE1BF"/>
<path d="M33.9825 114.758L64.0098 162.547L49.7734 175.971L9.31433 128.936L33.9825 114.758Z" fill="#578FCA"/>
<path d="M130 160V138.752L125 100" stroke="#3674B5" stroke-width="0.7693" stroke-miterlimit="10" stroke-linecap="round" stroke-linejoin="round"/>
</g>
<defs>
<clipPath id="clip0_1354_396">
<rect width="180" height="385" fill="white"/>
</clipPath>
</defs>
</svg>
