<svg width="180" height="385" viewBox="0 0 180 385" fill="none" xmlns="http://www.w3.org/2000/svg">
<g clip-path="url(#clip0_409_1164)">
<path d="M58.8759 171.727C64.1737 168.549 71.0668 170.24 74.2577 175.536C77.4487 180.812 75.7509 187.677 70.4327 190.854C65.135 194.032 58.2418 192.341 55.0509 187.045C51.86 181.79 53.5782 174.925 58.8759 171.727Z" fill="#FFC17B"/>
<path d="M71.578 172.517C71.2098 172.231 51.5325 149.213 51.5325 149.213L43.4939 158.909L61.2484 181.296L71.578 172.517Z" fill="#FFC17B"/>
<path d="M54.9897 351.981L49.9782 374.776L34.1464 372.413L39.26 349.924L54.9897 351.981Z" fill="#FFC17B"/>
<path d="M125.967 349.957L126.151 373.301L110.217 374.483L110.176 351.424L125.967 349.957Z" fill="#FFC17B"/>
<path d="M51.9823 371.07C51.655 370.113 50.4891 369.706 49.6505 370.317C48.0141 371.498 45.13 372.883 40.9573 372.394C36.6209 371.885 35.0666 369.604 34.5348 367.974C34.2484 367.118 33.328 366.67 32.4893 366.996L5.63245 377.711C3.99609 378.363 2.68696 379.626 2.01196 381.235C1.35742 382.743 2.46202 384.433 4.11884 384.433L49.753 384.759C51.553 384.78 52.9848 383.293 52.903 381.5L52.5143 372.72C52.5143 372.578 52.4734 372.435 52.4325 372.293L51.9823 371.07Z" fill="#0C0C0C"/>
<path d="M108.601 371.07C108.928 370.113 110.114 369.706 110.932 370.317C112.569 371.498 115.453 372.883 119.626 372.394C123.962 371.885 125.496 369.604 126.048 367.974C126.335 367.118 127.255 366.67 128.094 366.996L154.951 377.711C156.587 378.363 157.896 379.626 158.571 381.235C159.226 382.743 158.121 384.433 156.464 384.433L110.83 384.759C109.03 384.78 107.598 383.293 107.68 381.5L108.069 372.72C108.069 372.578 108.11 372.435 108.151 372.293L108.601 371.07Z" fill="#0C0C0C"/>
<path d="M108.396 57.292L94.2207 58.5142L71.6798 71.1642V161.12H131.837V71.1642L108.396 57.292Z" fill="#798645"/>
<path d="M104.509 66.345H100.439C96.2252 66.345 92.8093 62.9431 92.8093 58.7468V43.5098H112.118V58.7468C112.139 62.9431 108.723 66.345 104.509 66.345Z" fill="#FFC17B"/>
<path d="M92.8093 51.2707C92.8093 51.2707 95.8161 57.2799 102.648 57.2799C109.48 57.2799 112.118 51.1484 112.118 51.1484L92.8093 51.2707Z" fill="#F2A854"/>
<path d="M102.689 53.761H102.055C92.216 53.761 84.1161 46.0203 83.7274 36.2221L83.3797 26.4647C82.9706 16.0961 91.2956 7.47949 101.707 7.47949H103.037C110.912 7.47949 121.773 16.0961 121.364 26.4647L121.016 36.2221C120.627 46.0203 112.527 53.761 102.689 53.761Z" fill="#FFC17B"/>
<path d="M89.3531 33.8687C89.5781 37.1687 87.0827 40.0205 83.769 40.2446C80.4554 40.4687 77.5918 37.9835 77.3668 34.6835C77.1418 31.3835 79.6372 28.5317 82.9508 28.3076C86.2645 28.1039 89.1281 30.5891 89.3531 33.8687Z" fill="#FFC17B"/>
<path d="M127.358 33.8687C127.583 37.1687 125.087 40.0205 121.774 40.2446C118.46 40.4687 115.597 37.9835 115.372 34.6835C115.147 31.3835 117.642 28.5317 120.956 28.3076C124.269 28.1039 127.133 30.5891 127.358 33.8687Z" fill="#FFC17B"/>
<path d="M71.6797 160.688L34.2683 358.749L55.766 358.545L110.461 161.075L71.6797 160.688Z" fill="#202020"/>
<path d="M131.837 161.117L129.485 358.955H106.76L97.6984 162.36L131.837 161.117Z" fill="#202020"/>
<path d="M71.6803 71.1533C71.6803 71.1533 21.4439 101.342 9.23264 122.283C6.83946 126.377 9.94849 131.674 14.1621 133.853C18.8258 136.277 24.5735 134.627 27.253 130.126L73.7257 103.277C73.7462 103.277 71.6803 80.2181 71.6803 71.1533Z" fill="#798645"/>
<path d="M82.3371 15.3862L83.7485 30.3787H86.0189L86.3053 22.5158C86.3053 22.5158 87.4917 19.501 92.7894 13.0232C92.7894 13.0232 96.2462 21.8232 117.662 20.1121L118.91 30.0528L121.119 29.8084L122.285 19.1343C123.062 15.5288 123.328 12.1677 122.673 8.54175C121.344 1.20841 115.351 -2.84529 98.0462 2.32878C96.6144 2.75656 99.5394 2.47137 98.0462 2.32878C93.0962 1.77878 80.0462 1.71767 82.3371 15.3862Z" fill="#2E2A33"/>
<path d="M107.823 159.695L102.955 211.559C102.771 213.514 104.1 215.285 106.043 215.651L165.771 227.018C167.959 227.446 170.046 225.9 170.291 223.7L175.753 174.402C175.957 172.487 174.709 170.715 172.807 170.267L112.487 156.334C110.237 155.804 108.048 157.393 107.823 159.695Z" fill="#AFAFAF"/>
<path d="M111.137 160.618L106.269 212.481C106.085 214.437 107.414 216.209 109.357 216.576L169.085 227.943C171.273 228.35 173.36 226.822 173.605 224.622L179.066 175.325C179.271 173.41 178.023 171.638 176.121 171.19L115.801 157.257C113.571 156.727 111.362 158.316 111.137 160.618Z" fill="#D1D1D1"/>
<path d="M142.228 213.538C148.16 215.29 151.555 221.503 149.796 227.411C148.037 233.318 141.798 236.699 135.867 234.968C129.935 233.216 126.539 227.003 128.278 221.096C130.058 215.168 136.276 211.786 142.228 213.538Z" fill="#FFC17B"/>
<path d="M150.225 223.402C150.184 222.933 148.262 191.848 148.262 191.848L137.646 193.762L139.057 220.265L150.225 223.402Z" fill="#FFC17B"/>
<path d="M131.837 71.1533C131.837 71.1533 147.914 82.6218 148.937 98.9589L153.969 137.153C154.255 139.394 154.378 141.635 154.296 143.896L152.353 201.992H130.283L129.873 139.109L131.837 71.1533Z" fill="#798645"/>
<path d="M95.9183 57.292C94.2001 58.5346 85.916 63.179 85.916 63.179C85.916 63.179 86.141 74.7901 103.691 73.8531C119.134 73.0383 119.032 63.6068 119.032 63.6068L108.375 57.292H95.9183Z" fill="#FFC17B"/>
<path d="M33.9825 114.759L64.0098 162.548L49.7734 175.972L9.31433 128.937L33.9825 114.759Z" fill="#798645"/>
<path d="M130 160V138.752L125 100" stroke="#235328" stroke-width="0.7693" stroke-miterlimit="10" stroke-linecap="round" stroke-linejoin="round"/>
</g>
<defs>
<clipPath id="clip0_409_1164">
<rect width="180" height="385" fill="white"/>
</clipPath>
</defs>
</svg>
