<svg width="29" height="29" viewBox="0 0 29 29" fill="none" xmlns="http://www.w3.org/2000/svg">
<path d="M19.3334 20.5414V22.9581H2.41675V20.5414C2.41675 20.5414 2.41675 15.7081 10.8751 15.7081C19.3334 15.7081 19.3334 20.5414 19.3334 20.5414ZM15.1042 9.06222C15.1042 8.22577 14.8562 7.4081 14.3915 6.71262C13.9268 6.01714 13.2663 5.47507 12.4935 5.15498C11.7207 4.83488 10.8704 4.75113 10.05 4.91431C9.22963 5.0775 8.47607 5.48029 7.88461 6.07175C7.29315 6.66321 6.89036 7.41677 6.72718 8.23715C6.56399 9.05753 6.64775 9.90787 6.96784 10.6807C7.28794 11.4534 7.83 12.1139 8.52548 12.5786C9.22096 13.0433 10.0386 13.2914 10.8751 13.2914C11.9967 13.2914 13.0724 12.8458 13.8656 12.0527C14.6587 11.2596 15.1042 10.1839 15.1042 9.06222ZM19.2609 15.7081C20.0037 16.2829 20.6116 17.0136 21.0416 17.8486C21.4717 18.6837 21.7135 19.6028 21.7501 20.5414V22.9581H26.5834V20.5414C26.5834 20.5414 26.5834 16.1551 19.2609 15.7081ZM18.1251 4.83305C17.2935 4.82918 16.4803 5.07778 15.793 5.54597C16.527 6.57153 16.9216 7.80106 16.9216 9.06222C16.9216 10.3234 16.527 11.5529 15.793 12.5785C16.4803 13.0467 17.2935 13.2953 18.1251 13.2914C19.2467 13.2914 20.3224 12.8458 21.1156 12.0527C21.9087 11.2596 22.3542 10.1839 22.3542 9.06222C22.3542 7.94057 21.9087 6.86487 21.1156 6.07175C20.3224 5.27862 19.2467 4.83305 18.1251 4.83305Z" fill="black"/>
</svg>
