<svg width="30" height="30" viewBox="0 0 30 30" fill="none" xmlns="http://www.w3.org/2000/svg">
<path fill-rule="evenodd" clip-rule="evenodd" d="M6.83765 6.83667C7.01343 6.66111 7.25171 6.5625 7.50015 6.5625C7.74859 6.5625 7.98687 6.66111 8.16265 6.83667L23.1627 21.8367C23.2548 21.9225 23.3286 22.026 23.3799 22.141C23.4311 22.256 23.4587 22.3801 23.4609 22.506C23.4631 22.6319 23.44 22.7569 23.3928 22.8737C23.3457 22.9904 23.2755 23.0965 23.1865 23.1855C23.0974 23.2745 22.9914 23.3447 22.8746 23.3918C22.7579 23.439 22.6329 23.4621 22.507 23.4599C22.3811 23.4577 22.257 23.4301 22.142 23.3789C22.027 23.3277 21.9235 23.2538 21.8377 23.1617L6.83765 8.16168C6.66209 7.98589 6.56348 7.74761 6.56348 7.49918C6.56348 7.25074 6.66209 7.01246 6.83765 6.83667Z" fill="black"/>
<path fill-rule="evenodd" clip-rule="evenodd" d="M23.1626 6.83667C23.3381 7.01246 23.4367 7.25074 23.4367 7.49918C23.4367 7.74761 23.3381 7.98589 23.1626 8.16168L8.16255 23.1617C7.98483 23.3273 7.74978 23.4174 7.5069 23.4131C7.26402 23.4089 7.03229 23.3105 6.86052 23.1387C6.68876 22.9669 6.59037 22.7352 6.58608 22.4923C6.5818 22.2495 6.67195 22.0144 6.83755 21.8367L21.8376 6.83667C22.0133 6.66111 22.2516 6.5625 22.5001 6.5625C22.7485 6.5625 22.9868 6.66111 23.1626 6.83667Z" fill="black"/>
</svg>
